<mxfile host="app.diagrams.net" modified="2022-10-06T21:57:30.082Z" agent="5.0 (Windows NT 10.0; Win64; x64) AppleWebKit/537.36 (KHTML, like Gecko) Chrome/106.0.0.0 Safari/537.36" etag="-IjuPE85DHdVSmA77ywL" version="20.4.0" type="github" pages="2">
  <diagram id="0fajCpiCSNyf0W4oF5-n" name="Fan">
    <mxGraphModel dx="1287" dy="784" grid="1" gridSize="10" guides="1" tooltips="1" connect="1" arrows="1" fold="1" page="1" pageScale="1" pageWidth="827" pageHeight="1169" math="0" shadow="0">
      <root>
        <mxCell id="0" />
        <mxCell id="1" parent="0" />
        <mxCell id="e6-Qxzalg5yLmeX-kmgH-33" value="" style="shape=umlLifeline;participant=umlActor;perimeter=lifelinePerimeter;whiteSpace=wrap;html=1;container=1;collapsible=0;recursiveResize=0;verticalAlign=top;spacingTop=36;outlineConnect=0;size=40;" vertex="1" parent="1">
          <mxGeometry x="35" y="180" width="20" height="380" as="geometry" />
        </mxCell>
        <mxCell id="e6-Qxzalg5yLmeX-kmgH-34" value="Вентилятор вращается" style="html=1;verticalAlign=bottom;endArrow=open;dashed=1;endSize=8;rounded=0;entryX=0.95;entryY=0.76;entryDx=0;entryDy=0;entryPerimeter=0;" edge="1" parent="1" source="e6-Qxzalg5yLmeX-kmgH-36" target="e6-Qxzalg5yLmeX-kmgH-35">
          <mxGeometry x="0.2182" y="25" relative="1" as="geometry">
            <mxPoint x="539.9999999999998" y="489.96000000000004" as="sourcePoint" />
            <mxPoint x="80" y="490" as="targetPoint" />
            <mxPoint as="offset" />
          </mxGeometry>
        </mxCell>
        <mxCell id="e6-Qxzalg5yLmeX-kmgH-35" value="" style="html=1;points=[];perimeter=orthogonalPerimeter;" vertex="1" parent="1">
          <mxGeometry x="35" y="260" width="20" height="230" as="geometry" />
        </mxCell>
        <mxCell id="e6-Qxzalg5yLmeX-kmgH-36" value="e: Вентилятор" style="shape=umlLifeline;perimeter=lifelinePerimeter;whiteSpace=wrap;html=1;container=1;collapsible=0;recursiveResize=0;outlineConnect=0;" vertex="1" parent="1">
          <mxGeometry x="680" y="160" width="110" height="380" as="geometry" />
        </mxCell>
        <mxCell id="e6-Qxzalg5yLmeX-kmgH-38" value="" style="html=1;points=[];perimeter=orthogonalPerimeter;" vertex="1" parent="e6-Qxzalg5yLmeX-kmgH-36">
          <mxGeometry x="45" y="140" width="20" height="200" as="geometry" />
        </mxCell>
        <mxCell id="e6-Qxzalg5yLmeX-kmgH-40" value="b: Датчик CO2" style="shape=umlLifeline;perimeter=lifelinePerimeter;whiteSpace=wrap;html=1;container=1;collapsible=0;recursiveResize=0;outlineConnect=0;" vertex="1" parent="1">
          <mxGeometry x="150" y="160" width="100" height="400" as="geometry" />
        </mxCell>
        <mxCell id="e6-Qxzalg5yLmeX-kmgH-41" value="" style="html=1;points=[];perimeter=orthogonalPerimeter;" vertex="1" parent="e6-Qxzalg5yLmeX-kmgH-40">
          <mxGeometry x="40" y="100" width="20" height="110" as="geometry" />
        </mxCell>
        <mxCell id="e6-Qxzalg5yLmeX-kmgH-42" value="Воздействие на датчик" style="html=1;verticalAlign=bottom;endArrow=block;rounded=0;" edge="1" parent="1" source="e6-Qxzalg5yLmeX-kmgH-35">
          <mxGeometry x="-0.037" y="-20" width="80" relative="1" as="geometry">
            <mxPoint x="80" y="280" as="sourcePoint" />
            <mxPoint x="190" y="280" as="targetPoint" />
            <mxPoint as="offset" />
          </mxGeometry>
        </mxCell>
        <mxCell id="e6-Qxzalg5yLmeX-kmgH-43" value="c: Контроллер" style="shape=umlLifeline;perimeter=lifelinePerimeter;whiteSpace=wrap;html=1;container=1;collapsible=0;recursiveResize=0;outlineConnect=0;" vertex="1" parent="1">
          <mxGeometry x="360" y="160" width="100" height="400" as="geometry" />
        </mxCell>
        <mxCell id="e6-Qxzalg5yLmeX-kmgH-44" value="" style="html=1;points=[];perimeter=orthogonalPerimeter;" vertex="1" parent="e6-Qxzalg5yLmeX-kmgH-43">
          <mxGeometry x="40" y="110" width="20" height="110" as="geometry" />
        </mxCell>
        <mxCell id="e6-Qxzalg5yLmeX-kmgH-45" value="d: Реле" style="shape=umlLifeline;perimeter=lifelinePerimeter;whiteSpace=wrap;html=1;container=1;collapsible=0;recursiveResize=0;outlineConnect=0;" vertex="1" parent="1">
          <mxGeometry x="520" y="160" width="100" height="400" as="geometry" />
        </mxCell>
        <mxCell id="e6-Qxzalg5yLmeX-kmgH-46" value="" style="html=1;points=[];perimeter=orthogonalPerimeter;" vertex="1" parent="e6-Qxzalg5yLmeX-kmgH-45">
          <mxGeometry x="40" y="130" width="20" height="110" as="geometry" />
        </mxCell>
        <mxCell id="e6-Qxzalg5yLmeX-kmgH-47" value="Подача сигнала об изменении &lt;br&gt;окружающей среды" style="html=1;verticalAlign=bottom;endArrow=block;rounded=0;" edge="1" parent="1" source="e6-Qxzalg5yLmeX-kmgH-41" target="e6-Qxzalg5yLmeX-kmgH-44">
          <mxGeometry x="0.0526" y="-40" width="80" relative="1" as="geometry">
            <mxPoint x="240" y="310" as="sourcePoint" />
            <mxPoint x="345" y="310" as="targetPoint" />
            <Array as="points">
              <mxPoint x="340" y="300" />
            </Array>
            <mxPoint as="offset" />
          </mxGeometry>
        </mxCell>
        <mxCell id="e6-Qxzalg5yLmeX-kmgH-48" value="Команда замкнуть &lt;br&gt;электрическую цепь &lt;br&gt;с вентилятором" style="html=1;verticalAlign=bottom;endArrow=block;rounded=0;entryX=-0.15;entryY=0.238;entryDx=0;entryDy=0;entryPerimeter=0;" edge="1" parent="1" source="e6-Qxzalg5yLmeX-kmgH-44" target="e6-Qxzalg5yLmeX-kmgH-46">
          <mxGeometry x="0.0219" y="-54" width="80" relative="1" as="geometry">
            <mxPoint x="415" y="320" as="sourcePoint" />
            <mxPoint x="520" y="320" as="targetPoint" />
            <mxPoint x="-1" as="offset" />
          </mxGeometry>
        </mxCell>
        <mxCell id="e6-Qxzalg5yLmeX-kmgH-49" value="Замыкание цепи" style="html=1;verticalAlign=bottom;endArrow=block;rounded=0;" edge="1" parent="1" source="e6-Qxzalg5yLmeX-kmgH-46" target="e6-Qxzalg5yLmeX-kmgH-38">
          <mxGeometry x="-0.0345" y="-25" width="80" relative="1" as="geometry">
            <mxPoint x="580" y="359.99999999999994" as="sourcePoint" />
            <mxPoint x="717" y="359.99999999999994" as="targetPoint" />
            <mxPoint as="offset" />
          </mxGeometry>
        </mxCell>
        <mxCell id="e6-Qxzalg5yLmeX-kmgH-50" value="a: Пользователь" style="text;html=1;align=center;verticalAlign=middle;resizable=0;points=[];autosize=1;strokeColor=none;fillColor=none;" vertex="1" parent="1">
          <mxGeometry x="-10" y="155" width="110" height="30" as="geometry" />
        </mxCell>
        <mxCell id="XYCsBVNLDujC-cE6VWQl-1" value="" style="ellipse;whiteSpace=wrap;html=1;" vertex="1" parent="1">
          <mxGeometry x="500" y="370" width="120" height="80" as="geometry" />
        </mxCell>
      </root>
    </mxGraphModel>
  </diagram>
  <diagram id="efdcj0WKXpDifMYoBViI" name="Button">
    <mxGraphModel dx="1673" dy="934" grid="1" gridSize="10" guides="1" tooltips="1" connect="1" arrows="1" fold="1" page="1" pageScale="1" pageWidth="827" pageHeight="1169" math="0" shadow="0">
      <root>
        <mxCell id="0" />
        <mxCell id="1" parent="0" />
        <mxCell id="uPPNju4TJ0xwUEbWvf_P-1" value="" style="shape=umlLifeline;participant=umlActor;perimeter=lifelinePerimeter;whiteSpace=wrap;html=1;container=1;collapsible=0;recursiveResize=0;verticalAlign=top;spacingTop=36;outlineConnect=0;size=40;" vertex="1" parent="1">
          <mxGeometry x="45" y="25" width="20" height="380" as="geometry" />
        </mxCell>
        <mxCell id="uPPNju4TJ0xwUEbWvf_P-2" value="Buzzer издаёт звук" style="html=1;verticalAlign=bottom;endArrow=open;dashed=1;endSize=8;rounded=0;entryX=0.95;entryY=0.76;entryDx=0;entryDy=0;entryPerimeter=0;" edge="1" parent="1" source="uPPNju4TJ0xwUEbWvf_P-4" target="uPPNju4TJ0xwUEbWvf_P-3">
          <mxGeometry x="0.2182" y="25" relative="1" as="geometry">
            <mxPoint x="549.9999999999998" y="334.96000000000004" as="sourcePoint" />
            <mxPoint x="90" y="335" as="targetPoint" />
            <mxPoint as="offset" />
          </mxGeometry>
        </mxCell>
        <mxCell id="uPPNju4TJ0xwUEbWvf_P-3" value="" style="html=1;points=[];perimeter=orthogonalPerimeter;" vertex="1" parent="1">
          <mxGeometry x="45" y="105" width="20" height="230" as="geometry" />
        </mxCell>
        <mxCell id="uPPNju4TJ0xwUEbWvf_P-4" value="e: Buzzer" style="shape=umlLifeline;perimeter=lifelinePerimeter;whiteSpace=wrap;html=1;container=1;collapsible=0;recursiveResize=0;outlineConnect=0;" vertex="1" parent="1">
          <mxGeometry x="580" y="5" width="110" height="380" as="geometry" />
        </mxCell>
        <mxCell id="uPPNju4TJ0xwUEbWvf_P-5" value="" style="html=1;points=[];perimeter=orthogonalPerimeter;" vertex="1" parent="uPPNju4TJ0xwUEbWvf_P-4">
          <mxGeometry x="45" y="140" width="20" height="200" as="geometry" />
        </mxCell>
        <mxCell id="uPPNju4TJ0xwUEbWvf_P-6" value="b: Кнопка" style="shape=umlLifeline;perimeter=lifelinePerimeter;whiteSpace=wrap;html=1;container=1;collapsible=0;recursiveResize=0;outlineConnect=0;" vertex="1" parent="1">
          <mxGeometry x="160" y="5" width="100" height="400" as="geometry" />
        </mxCell>
        <mxCell id="uPPNju4TJ0xwUEbWvf_P-7" value="" style="html=1;points=[];perimeter=orthogonalPerimeter;" vertex="1" parent="uPPNju4TJ0xwUEbWvf_P-6">
          <mxGeometry x="40" y="100" width="20" height="110" as="geometry" />
        </mxCell>
        <mxCell id="uPPNju4TJ0xwUEbWvf_P-8" value="Нажатие на кнопку №3" style="html=1;verticalAlign=bottom;endArrow=block;rounded=0;" edge="1" parent="1" source="uPPNju4TJ0xwUEbWvf_P-3">
          <mxGeometry x="-0.037" y="-20" width="80" relative="1" as="geometry">
            <mxPoint x="90" y="125" as="sourcePoint" />
            <mxPoint x="200" y="125" as="targetPoint" />
            <mxPoint as="offset" />
          </mxGeometry>
        </mxCell>
        <mxCell id="uPPNju4TJ0xwUEbWvf_P-9" value="c: Контроллер" style="shape=umlLifeline;perimeter=lifelinePerimeter;whiteSpace=wrap;html=1;container=1;collapsible=0;recursiveResize=0;outlineConnect=0;" vertex="1" parent="1">
          <mxGeometry x="370" y="5" width="100" height="400" as="geometry" />
        </mxCell>
        <mxCell id="uPPNju4TJ0xwUEbWvf_P-10" value="" style="html=1;points=[];perimeter=orthogonalPerimeter;" vertex="1" parent="uPPNju4TJ0xwUEbWvf_P-9">
          <mxGeometry x="40" y="110" width="20" height="110" as="geometry" />
        </mxCell>
        <mxCell id="uPPNju4TJ0xwUEbWvf_P-13" value="Подача сигнала о &lt;br&gt;зажатии кнопки" style="html=1;verticalAlign=bottom;endArrow=block;rounded=0;" edge="1" parent="1" source="uPPNju4TJ0xwUEbWvf_P-7" target="uPPNju4TJ0xwUEbWvf_P-10">
          <mxGeometry x="0.0526" y="-40" width="80" relative="1" as="geometry">
            <mxPoint x="250" y="155" as="sourcePoint" />
            <mxPoint x="355" y="155" as="targetPoint" />
            <Array as="points">
              <mxPoint x="350" y="145" />
            </Array>
            <mxPoint as="offset" />
          </mxGeometry>
        </mxCell>
        <mxCell id="uPPNju4TJ0xwUEbWvf_P-14" value="Подача напряжения на buzzer" style="html=1;verticalAlign=bottom;endArrow=block;rounded=0;" edge="1" parent="1" source="uPPNju4TJ0xwUEbWvf_P-10" target="uPPNju4TJ0xwUEbWvf_P-4">
          <mxGeometry x="0.0758" y="-25" width="80" relative="1" as="geometry">
            <mxPoint x="425" y="165" as="sourcePoint" />
            <mxPoint x="567" y="161.18000000000006" as="targetPoint" />
            <mxPoint x="-1" as="offset" />
          </mxGeometry>
        </mxCell>
        <mxCell id="uPPNju4TJ0xwUEbWvf_P-16" value="a: Пользователь" style="text;html=1;align=center;verticalAlign=middle;resizable=0;points=[];autosize=1;strokeColor=none;fillColor=none;" vertex="1" parent="1">
          <mxGeometry width="110" height="30" as="geometry" />
        </mxCell>
        <mxCell id="c6RpOjbhWi8PSyfDC0G--1" value="" style="shape=umlLifeline;participant=umlActor;perimeter=lifelinePerimeter;whiteSpace=wrap;html=1;container=1;collapsible=0;recursiveResize=0;verticalAlign=top;spacingTop=36;outlineConnect=0;size=40;" vertex="1" parent="1">
          <mxGeometry x="45" y="495" width="20" height="380" as="geometry" />
        </mxCell>
        <mxCell id="c6RpOjbhWi8PSyfDC0G--2" value="Buzzer меняет звучание" style="html=1;verticalAlign=bottom;endArrow=open;dashed=1;endSize=8;rounded=0;entryX=0.95;entryY=0.76;entryDx=0;entryDy=0;entryPerimeter=0;" edge="1" parent="1" source="c6RpOjbhWi8PSyfDC0G--4" target="c6RpOjbhWi8PSyfDC0G--3">
          <mxGeometry x="0.1376" y="30" relative="1" as="geometry">
            <mxPoint x="549.9999999999998" y="804.96" as="sourcePoint" />
            <mxPoint x="90" y="805" as="targetPoint" />
            <mxPoint as="offset" />
          </mxGeometry>
        </mxCell>
        <mxCell id="c6RpOjbhWi8PSyfDC0G--3" value="" style="html=1;points=[];perimeter=orthogonalPerimeter;" vertex="1" parent="1">
          <mxGeometry x="45" y="575" width="20" height="230" as="geometry" />
        </mxCell>
        <mxCell id="c6RpOjbhWi8PSyfDC0G--4" value="e: Buzzer" style="shape=umlLifeline;perimeter=lifelinePerimeter;whiteSpace=wrap;html=1;container=1;collapsible=0;recursiveResize=0;outlineConnect=0;" vertex="1" parent="1">
          <mxGeometry x="580" y="475" width="110" height="380" as="geometry" />
        </mxCell>
        <mxCell id="c6RpOjbhWi8PSyfDC0G--5" value="" style="html=1;points=[];perimeter=orthogonalPerimeter;" vertex="1" parent="c6RpOjbhWi8PSyfDC0G--4">
          <mxGeometry x="45" y="140" width="20" height="200" as="geometry" />
        </mxCell>
        <mxCell id="c6RpOjbhWi8PSyfDC0G--6" value="b: Кнопка" style="shape=umlLifeline;perimeter=lifelinePerimeter;whiteSpace=wrap;html=1;container=1;collapsible=0;recursiveResize=0;outlineConnect=0;" vertex="1" parent="1">
          <mxGeometry x="160" y="475" width="100" height="400" as="geometry" />
        </mxCell>
        <mxCell id="c6RpOjbhWi8PSyfDC0G--7" value="" style="html=1;points=[];perimeter=orthogonalPerimeter;" vertex="1" parent="c6RpOjbhWi8PSyfDC0G--6">
          <mxGeometry x="40" y="100" width="20" height="110" as="geometry" />
        </mxCell>
        <mxCell id="c6RpOjbhWi8PSyfDC0G--8" value="Нажатие на кнопку №2" style="html=1;verticalAlign=bottom;endArrow=block;rounded=0;" edge="1" parent="1" source="c6RpOjbhWi8PSyfDC0G--3">
          <mxGeometry x="-0.037" y="-20" width="80" relative="1" as="geometry">
            <mxPoint x="90" y="595" as="sourcePoint" />
            <mxPoint x="200" y="595" as="targetPoint" />
            <mxPoint as="offset" />
          </mxGeometry>
        </mxCell>
        <mxCell id="c6RpOjbhWi8PSyfDC0G--9" value="c: Контроллер" style="shape=umlLifeline;perimeter=lifelinePerimeter;whiteSpace=wrap;html=1;container=1;collapsible=0;recursiveResize=0;outlineConnect=0;" vertex="1" parent="1">
          <mxGeometry x="370" y="475" width="100" height="400" as="geometry" />
        </mxCell>
        <mxCell id="c6RpOjbhWi8PSyfDC0G--10" value="" style="html=1;points=[];perimeter=orthogonalPerimeter;" vertex="1" parent="c6RpOjbhWi8PSyfDC0G--9">
          <mxGeometry x="40" y="110" width="20" height="110" as="geometry" />
        </mxCell>
        <mxCell id="c6RpOjbhWi8PSyfDC0G--11" value="Подача сигнала о &lt;br&gt;зажатии кнопки №2" style="html=1;verticalAlign=bottom;endArrow=block;rounded=0;" edge="1" parent="1" source="c6RpOjbhWi8PSyfDC0G--7" target="c6RpOjbhWi8PSyfDC0G--10">
          <mxGeometry x="0.0526" y="-40" width="80" relative="1" as="geometry">
            <mxPoint x="250" y="625" as="sourcePoint" />
            <mxPoint x="355" y="625" as="targetPoint" />
            <Array as="points">
              <mxPoint x="350" y="615" />
            </Array>
            <mxPoint as="offset" />
          </mxGeometry>
        </mxCell>
        <mxCell id="c6RpOjbhWi8PSyfDC0G--12" value="Изменение подачи &lt;br&gt;напряжения на buzzer" style="html=1;verticalAlign=bottom;endArrow=block;rounded=0;" edge="1" parent="1" source="c6RpOjbhWi8PSyfDC0G--10" target="c6RpOjbhWi8PSyfDC0G--4">
          <mxGeometry x="0.0758" y="-40" width="80" relative="1" as="geometry">
            <mxPoint x="425" y="635" as="sourcePoint" />
            <mxPoint x="567" y="631.1800000000001" as="targetPoint" />
            <mxPoint x="-1" as="offset" />
          </mxGeometry>
        </mxCell>
        <mxCell id="c6RpOjbhWi8PSyfDC0G--13" value="a: Пользователь" style="text;html=1;align=center;verticalAlign=middle;resizable=0;points=[];autosize=1;strokeColor=none;fillColor=none;" vertex="1" parent="1">
          <mxGeometry y="470" width="110" height="30" as="geometry" />
        </mxCell>
      </root>
    </mxGraphModel>
  </diagram>
</mxfile>
